<?xml version="1.0" encoding="UTF-8"?>
<svg version="1.1" xmlns="http://www.w3.org/2000/svg" width="180" height="180">
<path d="M0 0 C0.98742187 0.24363281 1.97484375 0.48726563 2.9921875 0.73828125 C9.60287815 2.62832966 15.33768862 5.68788004 21.25 9.125 C22.01425293 9.5691626 22.77850586 10.0133252 23.56591797 10.47094727 C25.41621294 11.58505565 27.21406507 12.78539496 29 14 C29 14.66 29 15.32 29 16 C29.71800781 16.23074219 30.43601563 16.46148438 31.17578125 16.69921875 C34.55032982 18.25347141 36.57655197 20.17785199 39.1875 22.8125 C40.04730469 23.66457031 40.90710938 24.51664063 41.79296875 25.39453125 C43.92096788 27.90670014 45.00079488 29.89074162 46 33 C46.66 33 47.32 33 48 33 C62.00370851 53.24961036 68.0516654 76.68237687 64.46484375 101.19921875 C63.77829587 104.84955255 62.9535068 108.41081719 62 112 C61.75636719 112.98742187 61.51273438 113.97484375 61.26171875 114.9921875 C59.37167034 121.60287815 56.31211996 127.33768862 52.875 133.25 C52.4308374 134.01425293 51.9866748 134.77850586 51.52905273 135.56591797 C50.41494435 137.41621294 49.21460504 139.21406507 48 141 C47.34 141 46.68 141 46 141 C45.76925781 141.71800781 45.53851563 142.43601563 45.30078125 143.17578125 C43.74652859 146.55032982 41.82214801 148.57655197 39.1875 151.1875 C38.33542969 152.04730469 37.48335937 152.90710938 36.60546875 153.79296875 C34.09329986 155.92096788 32.10925838 157.00079488 29 158 C29 158.66 29 159.32 29 160 C8.75038964 174.00370851 -14.68237687 180.0516654 -39.19921875 176.46484375 C-42.84955255 175.77829587 -46.41081719 174.9535068 -50 174 C-50.98742187 173.75636719 -51.97484375 173.51273438 -52.9921875 173.26171875 C-59.60287815 171.37167034 -65.33768862 168.31211996 -71.25 164.875 C-72.01425293 164.4308374 -72.77850586 163.9866748 -73.56591797 163.52905273 C-75.41621294 162.41494435 -77.21406507 161.21460504 -79 160 C-79 159.34 -79 158.68 -79 158 C-80.07701172 157.65388672 -80.07701172 157.65388672 -81.17578125 157.30078125 C-84.55032982 155.74652859 -86.57655197 153.82214801 -89.1875 151.1875 C-90.04730469 150.33542969 -90.90710938 149.48335937 -91.79296875 148.60546875 C-93.92096788 146.09329986 -95.00079488 144.10925838 -96 141 C-96.66 141 -97.32 141 -98 141 C-112.00370851 120.75038964 -118.0516654 97.31762313 -114.46484375 72.80078125 C-113.77829587 69.15044745 -112.9535068 65.58918281 -112 62 C-111.75636719 61.01257813 -111.51273437 60.02515625 -111.26171875 59.0078125 C-109.37167034 52.39712185 -106.31211996 46.66231138 -102.875 40.75 C-102.4308374 39.98574707 -101.9866748 39.22149414 -101.52905273 38.43408203 C-100.41494435 36.58378706 -99.21460504 34.78593493 -98 33 C-97.34 33 -96.68 33 -96 33 C-95.76925781 32.28199219 -95.53851563 31.56398437 -95.30078125 30.82421875 C-93.74652859 27.44967018 -91.82214801 25.42344803 -89.1875 22.8125 C-88.33542969 21.95269531 -87.48335937 21.09289062 -86.60546875 20.20703125 C-84.09329986 18.07903212 -82.10925838 16.99920512 -79 16 C-79 15.34 -79 14.68 -79 14 C-55.4483677 -2.28723654 -27.73349517 -7.36771507 0 0 Z " fill="#FEFBFB" transform="translate(115,3)"/>
<path d="M0 0 C0.98742187 0.24363281 1.97484375 0.48726563 2.9921875 0.73828125 C9.60287815 2.62832966 15.33768862 5.68788004 21.25 9.125 C22.01425293 9.5691626 22.77850586 10.0133252 23.56591797 10.47094727 C25.41621294 11.58505565 27.21406507 12.78539496 29 14 C29 14.66 29 15.32 29 16 C29.71800781 16.23074219 30.43601563 16.46148438 31.17578125 16.69921875 C34.55032982 18.25347141 36.57655197 20.17785199 39.1875 22.8125 C40.04730469 23.66457031 40.90710938 24.51664063 41.79296875 25.39453125 C43.92096788 27.90670014 45.00079488 29.89074162 46 33 C46.66 33 47.32 33 48 33 C62.00370851 53.24961036 68.0516654 76.68237687 64.46484375 101.19921875 C63.77829587 104.84955255 62.9535068 108.41081719 62 112 C61.75636719 112.98742187 61.51273438 113.97484375 61.26171875 114.9921875 C59.37167034 121.60287815 56.31211996 127.33768862 52.875 133.25 C52.4308374 134.01425293 51.9866748 134.77850586 51.52905273 135.56591797 C50.41494435 137.41621294 49.21460504 139.21406507 48 141 C47.34 141 46.68 141 46 141 C45.76925781 141.71800781 45.53851563 142.43601563 45.30078125 143.17578125 C43.74652859 146.55032982 41.82214801 148.57655197 39.1875 151.1875 C38.33542969 152.04730469 37.48335937 152.90710938 36.60546875 153.79296875 C34.09329986 155.92096788 32.10925838 157.00079488 29 158 C29 158.66 29 159.32 29 160 C8.75038964 174.00370851 -14.68237687 180.0516654 -39.19921875 176.46484375 C-42.84955255 175.77829587 -46.41081719 174.9535068 -50 174 C-50.98742187 173.75636719 -51.97484375 173.51273438 -52.9921875 173.26171875 C-59.60287815 171.37167034 -65.33768862 168.31211996 -71.25 164.875 C-72.01425293 164.4308374 -72.77850586 163.9866748 -73.56591797 163.52905273 C-75.41621294 162.41494435 -77.21406507 161.21460504 -79 160 C-79 159.34 -79 158.68 -79 158 C-80.07701172 157.65388672 -80.07701172 157.65388672 -81.17578125 157.30078125 C-84.55032982 155.74652859 -86.57655197 153.82214801 -89.1875 151.1875 C-90.04730469 150.33542969 -90.90710938 149.48335937 -91.79296875 148.60546875 C-93.92096788 146.09329986 -95.00079488 144.10925838 -96 141 C-96.66 141 -97.32 141 -98 141 C-112.00370851 120.75038964 -118.0516654 97.31762313 -114.46484375 72.80078125 C-113.77829587 69.15044745 -112.9535068 65.58918281 -112 62 C-111.75636719 61.01257813 -111.51273437 60.02515625 -111.26171875 59.0078125 C-109.37167034 52.39712185 -106.31211996 46.66231138 -102.875 40.75 C-102.4308374 39.98574707 -101.9866748 39.22149414 -101.52905273 38.43408203 C-100.41494435 36.58378706 -99.21460504 34.78593493 -98 33 C-97.34 33 -96.68 33 -96 33 C-95.76925781 32.28199219 -95.53851563 31.56398437 -95.30078125 30.82421875 C-93.74652859 27.44967018 -91.82214801 25.42344803 -89.1875 22.8125 C-88.33542969 21.95269531 -87.48335937 21.09289062 -86.60546875 20.20703125 C-84.09329986 18.07903212 -82.10925838 16.99920512 -79 16 C-79 15.34 -79 14.68 -79 14 C-55.4483677 -2.28723654 -27.73349517 -7.36771507 0 0 Z M-90.34375 33.70703125 C-92.19518032 35.79878413 -92.19518032 35.79878413 -92 38 C-93.485 38.495 -93.485 38.495 -95 39 C-95.72850008 40.64058217 -96.3839099 42.31398244 -97 44 C-98.11333651 45.94422557 -99.23948979 47.88114094 -100.375 49.8125 C-110.48764605 68.31021506 -110.96629448 89.92595923 -106 110 C-105.70996094 111.28583984 -105.70996094 111.28583984 -105.4140625 112.59765625 C-100.20921661 132.84247892 -86.41175879 149.97917342 -68.8671875 160.9609375 C-47.99611961 172.4376036 -21.78927657 173.43703553 1 168 C4.45686509 166.88443796 7.69569182 165.49726465 11 164 C11.804375 163.71511719 12.60875 163.43023437 13.4375 163.13671875 C23.52085201 159.56027983 31.17650886 153.05791431 38.6875 145.625 C39.21714355 145.10099609 39.74678711 144.57699219 40.29248047 144.03710938 C43.12668664 141.48643666 43.12668664 141.48643666 44 138 C44.99 137.67 45.98 137.34 47 137 C48.36826197 134.68877997 48.36826197 134.68877997 49.5 131.875 C49.92925781 130.86695313 50.35851562 129.85890625 50.80078125 128.8203125 C51.19652344 127.88960938 51.59226563 126.95890625 52 126 C52.556875 124.9275 53.11375 123.855 53.6875 122.75 C55.22029803 118.37057706 55.76421545 114.13656219 56.29711914 109.5378418 C56.67768204 106.27258788 57.1250996 103.19505511 58.125 100.0625 C62.62142971 83.12836552 57.36832262 61.87701798 49 47 C48.48695313 46.071875 47.97390625 45.14375 47.4453125 44.1875 C36.91555475 26.45317115 19.61268071 12.05448377 -0.37011719 6.31982422 C-34.322429 -2.33091147 -67.26577117 7.0519657 -90.34375 33.70703125 Z " fill="#DFB0E8" transform="translate(115,3)"/>
<path d="M0 0 C3.7726764 0.53895377 5.68212991 1.99535358 8 5 C7.77561299 7.53826088 7.41142901 8.64587017 5.46435547 10.32177734 C4.81354004 10.6977002 4.16272461 11.07362305 3.4921875 11.4609375 C2.4088916 12.09273926 2.4088916 12.09273926 1.30371094 12.73730469 C-3.14349232 15.17487731 -7.64223588 17.5010235 -12.171875 19.78125 C-12.89632812 20.15507813 -13.62078125 20.52890625 -14.3671875 20.9140625 C-15.01800293 21.2435791 -15.66881836 21.5730957 -16.33935547 21.91259766 C-18.31922232 23.05392585 -18.31922232 23.05392585 -20 26 C-20.16699232 29.12521833 -20.16699232 29.12521833 -20 32 C-14.19217364 30.73532894 -14.19217364 30.73532894 -9 28 C-6.66800612 27.92094936 -4.33167378 27.91201231 -2 28 C-2.61277612 30.96175123 -3.25372522 32.38058783 -5 35 C-5.99 34.505 -5.99 34.505 -7 34 C-6.67 33.01 -6.34 32.02 -6 31 C-10.5518415 32.96556792 -13.38334102 34.735815 -16 39 C-17.18706863 43.93090045 -16.9117353 48.0361078 -16 53 C-15.38511719 53.03738281 -14.77023438 53.07476562 -14.13671875 53.11328125 C-13.32847656 53.17902344 -12.52023438 53.24476562 -11.6875 53.3125 C-10.48673828 53.39951172 -10.48673828 53.39951172 -9.26171875 53.48828125 C-6.55675136 54.10028596 -5.64431021 54.7890352 -4 57 C-3.3125 59.1875 -3.3125 59.1875 -3 61 C-1.96875 60.195625 -0.9375 59.39125 0.125 58.5625 C3.37127696 56.22200704 5.94902383 55.29641289 10 55 C9.52269162 53.5410574 9.04308958 52.08286504 8.5625 50.625 C8.29566406 49.81289062 8.02882812 49.00078125 7.75390625 48.1640625 C7.04820271 45.98968201 7.04820271 45.98968201 6 44 C5.95977609 41.6670134 5.95679753 39.33293334 6 37 C6.66 36.67 7.32 36.34 8 36 C13.12606093 37.89441382 15.59540284 40.10174654 18 45 C18.59225759 48.32958261 18.8665181 51.62290792 19 55 C19.56847656 55.12375 20.13695313 55.2475 20.72265625 55.375 C27.32619524 57.13888354 31.47547542 60.06395861 35 66 C35.75 69.75 35.75 69.75 35 73 C32.24872077 75.84684469 30.80848613 76.95447936 26.80859375 77.1796875 C25.69613281 77.07914062 24.58367187 76.97859375 23.4375 76.875 C20.04928352 76.7044602 20.04928352 76.7044602 17 77 C14.25 79.5 14.25 79.5 13 83 C12.236875 83.969375 11.47375 84.93875 10.6875 85.9375 C8.73371276 88.93793236 8.73371276 88.93793236 8.875 92.5625 C10.35395311 97.0815234 12.16152883 98.30490322 16 101 C15.835 100.34 15.67 99.68 15.5 99 C14.87698213 95.26189278 14.33453786 91.76330314 15 88 C18.20762179 83.72317095 22.21309998 81.2224893 27 79 C29.9375 79.25 29.9375 79.25 32 80 C31.9375 82.25 31.9375 82.25 31 85 C28.7691525 86.67849824 26.52594094 87.75999263 24 89 C24.05800781 89.96421875 24.11601563 90.9284375 24.17578125 91.921875 C24.24345703 93.81679687 24.24345703 93.81679687 24.3125 95.75 C24.37050781 97.00296875 24.42851563 98.2559375 24.48828125 99.546875 C24 103 24 103 21.6875 105.4140625 C18.04104047 107.56589763 16.18464566 107.70926198 12 107 C6.76424665 104.18445676 2.81571353 100.78758688 1 95 C0.37117896 91.81436888 0.22122446 89.16844295 1 86 C3.03497408 82.993098 5.44167954 80.55832046 8 78 C8 77.67 8 77.34 8 77 C7.24074219 77.04640625 6.48148438 77.0928125 5.69921875 77.140625 C4.70535156 77.17671875 3.71148437 77.2128125 2.6875 77.25 C1.70136719 77.29640625 0.71523437 77.3428125 -0.30078125 77.390625 C-3 77 -3 77 -4.84375 75.21875 C-6.46701766 72.10383097 -6.1991825 69.4524966 -6 66 C-9.28050533 67.53773687 -11.71281541 69.16587996 -14 72 C-16.01291215 81.47941186 -13.65722386 90.27947605 -8.5390625 98.28515625 C-6.49705662 101.14085483 -4.69918727 103.49950264 -1.828125 105.5546875 C-1.22484375 106.03164062 -0.6215625 106.50859375 0 107 C0.25 109.6875 0.25 109.6875 0 112 C-5.88799141 111.87733351 -8.81951615 110.12103521 -13.07421875 106.09765625 C-21.12991832 97.32298958 -23.4355364 89.40607079 -23.25 77.578125 C-22.85682199 71.95076475 -21.87420596 68.68197971 -17.5625 64.8125 C-16.716875 64.214375 -15.87125 63.61625 -15 63 C-13.64852862 61.68505488 -12.30887458 60.35735142 -11 59 C-17.38083553 59.50325943 -17.38083553 59.50325943 -22.82421875 62.5625 C-24.41007533 64.6270272 -25.68200752 66.7552229 -27 69 C-27.43449463 69.71172363 -27.86898926 70.42344727 -28.31665039 71.15673828 C-32.23882763 78.1638832 -32.84647666 84.44157702 -33.125 92.375 C-33.21945135 94.67501813 -33.32571925 96.97458955 -33.4453125 99.2734375 C-33.48156738 100.27810059 -33.51782227 101.28276367 -33.55517578 102.31787109 C-34.05407537 105.32605487 -34.99149469 106.74921581 -37 109 C-38.875 108.6875 -38.875 108.6875 -41 108 C-45.56922454 101.14616319 -43.25855861 89.74784981 -41.7421875 81.9375 C-39.11735818 71.54870185 -34.59968368 64.49516937 -27 57 C-26.34 56.34 -25.68 55.68 -25 55 C-25.01748219 52.08047432 -25.13944633 49.27702115 -25.375 46.375 C-25.43171875 45.57320312 -25.4884375 44.77140625 -25.546875 43.9453125 C-25.68847982 41.96284502 -25.84302259 39.98130949 -26 38 C-28.37564521 38.62262457 -30.75050241 39.24802592 -33.125 39.875 C-33.79015625 40.04902344 -34.4553125 40.22304687 -35.140625 40.40234375 C-39.14797664 41.4631133 -43.07952899 42.64432311 -47 44 C-44.87689428 38.8263266 -40.7405898 36.64204845 -36 34 C-34.55349128 33.48624001 -33.09529823 33.00358947 -31.625 32.5625 C-27.74095298 31.36287651 -27.74095298 31.36287651 -26.5 27.8125 C-26.28601563 27.19761719 -26.07203125 26.58273438 -25.8515625 25.94921875 C-21.48235985 15.94815397 -9.15994162 11.49669861 0 7 C0 4.69 0 2.38 0 0 Z " fill="#DB2D26" transform="translate(100,27)"/>
<path d="M0 0 C0.66 0 1.32 0 2 0 C1.34364528 3.81961984 -0.45920014 6.55474777 -2.5 9.8125 C-5.19176119 14.38684264 -6.90700125 17.60607232 -7 23 C-7.05929688 24.01578125 -7.11859375 25.0315625 -7.1796875 26.078125 C-7.72478206 40.63535609 -3.75535595 51.17839797 6 62 C15.07775101 71.55928201 30.36091253 75.90533638 43.28149414 76.39453125 C57.51971374 76.64881097 71.13293737 73.82334032 81.9609375 64 C82.63382812 63.34 83.30671875 62.68 84 62 C84.65226562 61.4225 85.30453125 60.845 85.9765625 60.25 C93.8974929 52.96948525 98.20691513 43.33821389 99.35546875 32.7109375 C99.67972238 24.80615977 98.26737064 18.77567757 95.09375 11.546875 C94 9 94 9 94 7 C97 8 97 8 98.31640625 10.00390625 C98.72761719 10.84824219 99.13882813 11.69257812 99.5625 12.5625 C100.18318359 13.80193359 100.18318359 13.80193359 100.81640625 15.06640625 C105.14528152 25.79573076 106.12064771 39.60696115 102.09765625 50.609375 C95.01570021 66.03342161 84.42881852 77.21384268 68.375 83.3125 C66.59000202 83.89581631 64.79861895 84.46014303 63 85 C62.32066406 85.22558594 61.64132813 85.45117188 60.94140625 85.68359375 C45.52594116 90.04079148 29.05674545 86.81254819 15 80 C11.84342381 78.18435695 8.90848662 76.18839709 6 74 C5.38511719 73.55011719 4.77023438 73.10023438 4.13671875 72.63671875 C-4.90946633 65.51610744 -11.87398367 54.27032575 -13.27050781 42.77294922 C-14.4875801 26.26768116 -10.75518547 12.68613576 0 0 Z " fill="#DB2B23" transform="translate(46,70)"/>
<path d="M0 0 C4.08779604 1.41500632 6.41104562 2.36454922 9.375 5.5625 C11.48504343 10.0260534 11.80680487 14.11216328 12 19 C12.56847656 19.12375 13.13695313 19.2475 13.72265625 19.375 C20.32619524 21.13888354 24.47547542 24.06395861 28 30 C28.75 33.75 28.75 33.75 28 37 C25.24872077 39.84684469 23.80848613 40.95447936 19.80859375 41.1796875 C18.69613281 41.07914063 17.58367187 40.97859375 16.4375 40.875 C13.04928352 40.7044602 13.04928352 40.7044602 10 41 C7.25 43.5 7.25 43.5 6 47 C5.236875 47.969375 4.47375 48.93875 3.6875 49.9375 C1.73371276 52.93793236 1.73371276 52.93793236 1.875 56.5625 C3.35395311 61.0815234 5.16152883 62.30490322 9 65 C8.835 64.34 8.67 63.68 8.5 63 C7.87698213 59.26189278 7.33453786 55.76330314 8 52 C11.20762179 47.72317095 15.21309998 45.2224893 20 43 C22.9375 43.25 22.9375 43.25 25 44 C24.9375 46.25 24.9375 46.25 24 49 C21.7691525 50.67849824 19.52594094 51.75999263 17 53 C17.05800781 53.96421875 17.11601563 54.9284375 17.17578125 55.921875 C17.22089844 57.18515625 17.26601562 58.4484375 17.3125 59.75 C17.37050781 61.00296875 17.42851563 62.2559375 17.48828125 63.546875 C17 67 17 67 14.6875 69.4140625 C11.04104047 71.56589763 9.18464566 71.70926198 5 71 C-0.23575335 68.18445676 -4.18428647 64.78758688 -6 59 C-6.62882104 55.81436888 -6.77877554 53.16844295 -6 50 C-3.96502592 46.993098 -1.55832046 44.55832046 1 42 C1 41.67 1 41.34 1 41 C0.24074219 41.04640625 -0.51851562 41.0928125 -1.30078125 41.140625 C-2.29464844 41.17671875 -3.28851563 41.2128125 -4.3125 41.25 C-5.29863281 41.29640625 -6.28476563 41.3428125 -7.30078125 41.390625 C-10 41 -10 41 -11.85546875 39.359375 C-13.34976556 36.27898158 -13.44793455 34.39396566 -13 31 C-10.57064247 26.52894838 -7.3740907 22.11486016 -2.6875 19.9140625 C-0.5 19.375 -0.5 19.375 3 19 C2.52269162 17.5410574 2.04308958 16.08286504 1.5625 14.625 C1.29566406 13.81289062 1.02882813 13.00078125 0.75390625 12.1640625 C0.04820271 9.98968201 0.04820271 9.98968201 -1 8 C-1.125 4.4375 -1.125 4.4375 -1 1 C-0.67 0.67 -0.34 0.34 0 0 Z " fill="#DB2B24" transform="translate(107,63)"/>
<path d="M0 0 C2 3 2 3 1.80859375 5.48828125 C-0.60341939 12.98066991 -9.46365794 16.4582391 -15.9375 19.9375 C-27.74256684 26.32692663 -37.58536121 33.71599251 -41.6796875 47.24609375 C-42.16935172 51.45601172 -42.14359926 55.64056906 -42.125 59.875 C-42.12886719 60.74769531 -42.13273437 61.62039062 -42.13671875 62.51953125 C-42.12929903 67.4536442 -41.83494166 72.13613352 -41 77 C-46.49924929 70.97701268 -47.54333215 63.08092626 -47.37109375 55.21875 C-46.72066159 49.57710681 -44.92294984 44.32245046 -43 39 C-45.47185038 40.55116117 -46.80110924 41.41563025 -47.7578125 44.2265625 C-47.87898438 45.01804688 -48.00015625 45.80953125 -48.125 46.625 C-48.5078125 49.0390625 -48.5078125 49.0390625 -49 51 C-49.99 51.495 -49.99 51.495 -51 52 C-52.03155395 41.43612346 -52.03155395 41.43612346 -48.625 37.1875 C-44.85258021 33.45117992 -38.49791937 28 -33 28 C-32.67 26.35 -32.34 24.7 -32 23 C-35.48351891 24.90870137 -35.48351891 24.90870137 -38.3125 27.625 C-41.14885452 29.93610368 -44.41803037 29.70639593 -48 30 C-46.87760341 28.87760341 -45.75450509 27.75590392 -44.62890625 26.63671875 C-43.41820157 25.42020734 -42.21952252 24.19170352 -41.02734375 22.95703125 C-39.99287109 21.89548828 -39.99287109 21.89548828 -38.9375 20.8125 C-38.28652344 20.13832031 -37.63554688 19.46414062 -36.96484375 18.76953125 C-33.80527474 15.9240347 -30.88817125 14.80373032 -26.69921875 14.2890625 C-25.48008789 14.12277344 -25.48008789 14.12277344 -24.23632812 13.953125 C-22.54961503 13.73598492 -20.86210345 13.52495193 -19.17382812 13.3203125 C-13.56682247 12.54143879 -9.74288778 11.11071992 -5 8 C-5 7.34 -5 6.68 -5 6 C-7.770339 6.63551207 -10.30984559 7.48542185 -12.9375 8.5625 C-16.08535833 9.77457255 -18.58821039 10.31985528 -22 10 C-18.52864295 7.68576197 -14.95929768 5.57101052 -11.375 3.4375 C-4.84421715 -0.51534225 -4.84421715 -0.51534225 0 0 Z " fill="#DB2E26" transform="translate(71,42)"/>
<path d="M0 0 C0.66 0.99 1.32 1.98 2 3 C2 2.01 2 1.02 2 0 C2.66 0 3.32 0 4 0 C4 1.65 4 3.3 4 5 C4.721875 5.0825 5.44375 5.165 6.1875 5.25 C10.40344128 6.37425101 13.11167108 8.47715043 15.3125 12.25 C15.539375 12.8275 15.76625 13.405 16 14 C16.66 14 17.32 14 18 14 C17.67 15.32 17.34 16.64 17 18 C16.34 18 15.68 18 15 18 C14.773125 18.7425 14.54625 19.485 14.3125 20.25 C12.61573778 23.80512083 11.47814378 25.0834718 8 27 C2.47707759 27.663734 -2.06443653 27.64586908 -7 25 C-9.32495277 24.61250787 -11.65851268 24.27017161 -14 24 C-13.68933594 23.443125 -13.37867187 22.88625 -13.05859375 22.3125 C-11.59131994 19.10723766 -11.20394681 15.90086512 -10.66015625 12.4375 C-9.92268808 9.71454061 -8.69595066 8.2181371 -7 6 C-7 5.01 -7 4.02 -7 3 C-5.68 2.34 -4.36 1.68 -3 1 C-2.67 1.33 -2.34 1.66 -2 2 C-1.34 1.34 -0.68 0.68 0 0 Z " fill="#FEB100" transform="translate(127,35)"/>
<path d="M0 0 C2.625 1.6875 2.625 1.6875 4 4 C3.9375 6.625 3.9375 6.625 3 9 C-0.22791555 11.1519437 -1.28400809 11.20086443 -5 11 C-5 10.01 -5 9.02 -5 8 C-4.34 7.67 -3.68 7.34 -3 7 C-3 6.34 -3 5.68 -3 5 C-12.30485251 4.15410432 -17.69266749 8.29720803 -25 13.625 C-29.33789867 16.72446582 -33.68136301 19.12987534 -39 20 C-39.99 19.67 -40.98 19.34 -42 19 C-41.22398438 18.61070313 -40.44796875 18.22140625 -39.6484375 17.8203125 C-32.605461 14.17275665 -26.15642784 10.1960421 -19.84716797 5.37744141 C-13.72600975 0.79063426 -7.59649336 -1.16537114 0 0 Z " fill="#DC322A" transform="translate(81,32)"/>
<path d="M0 0 C3.63 0.33 7.26 0.66 11 1 C10 4 10 4 8.00390625 5.28125 C6.79541016 5.88453125 6.79541016 5.88453125 5.5625 6.5 C2.24051381 8.16365921 1.12585245 8.81122132 -1 12 C-1.24246783 15.20379124 -1.24246783 15.20379124 -1.125 18.6875 C-1.10695313 19.86699219 -1.08890625 21.04648438 -1.0703125 22.26171875 C-1.04710938 23.16535156 -1.02390625 24.06898437 -1 25 C-4.76512284 23.24822706 -6.82112759 21.63145402 -9 18 C-9.2475704 11.43938436 -5.93564143 7.8021089 -2 3 C-1.34 2.01 -0.68 1.02 0 0 Z " fill="#FCF2F1" transform="translate(117,103)"/>
<path d="M0 0 C0.66 0.99 1.32 1.98 2 3 C2 2.01 2 1.02 2 0 C2.66 0 3.32 0 4 0 C4 1.65 4 3.3 4 5 C4.721875 5.0825 5.44375 5.165 6.1875 5.25 C10.40344128 6.37425101 13.11167108 8.47715043 15.3125 12.25 C15.539375 12.8275 15.76625 13.405 16 14 C16.66 14 17.32 14 18 14 C17.67 15.32 17.34 16.64 17 18 C16.34 18 15.68 18 15 18 C14.773125 18.7425 14.54625 19.485 14.3125 20.25 C12.61573778 23.80512083 11.47814378 25.0834718 8 27 C4.30825489 27.32757738 0.69549735 27.23299108 -3 27 C-3 26.67 -3 26.34 -3 26 C-2.33613281 25.91363281 -1.67226562 25.82726562 -0.98828125 25.73828125 C5.02299359 24.78174263 8.19591638 23.81850592 12 19 C10.35 19 8.7 19 7 19 C7.33 18.01 7.66 17.02 8 16 C8.99 15.67 9.98 15.34 11 15 C10.68783129 12.11243942 10.46286623 10.46286623 8.375 8.375 C5.27425185 6.57983002 2.81238934 6.49061947 -0.75 6.3125 C-1.92046875 6.24675781 -3.0909375 6.18101563 -4.296875 6.11328125 C-5.18890625 6.07589844 -6.0809375 6.03851563 -7 6 C-7 5.01 -7 4.02 -7 3 C-5.68 2.34 -4.36 1.68 -3 1 C-2.67 1.33 -2.34 1.66 -2 2 C-1.34 1.34 -0.68 0.68 0 0 Z " fill="#DD3524" transform="translate(127,35)"/>
<path d="M0 0 C6.72 0.72 6.72 0.72 8 2 C8.04092937 4.33297433 8.04241723 6.66705225 8 9 C7.11248047 9.07347656 7.11248047 9.07347656 6.20703125 9.1484375 C1.72954816 9.5720819 -1.8209289 10.30578199 -6 12 C-9.3125 12.125 -9.3125 12.125 -12 12 C-11.34 10.68 -10.68 9.36 -10 8 C-9.34 8.33 -8.68 8.66 -8 9 C-7.67 8.34 -7.34 7.68 -7 7 C-5.68 7 -4.36 7 -3 7 C-2.690625 6.030625 -2.38125 5.06125 -2.0625 4.0625 C-1 1 -1 1 0 0 Z " fill="#FF2B00" transform="translate(125,47)"/>
<path d="M0 0 C3.5 0.875 3.5 0.875 5.5 2.125 C6.5 3.875 6.5 3.875 6.1875 6.5625 C5.960625 7.325625 5.73375 8.08875 5.5 8.875 C7.15 8.875 8.8 8.875 10.5 8.875 C9.53441599 11.42063057 8.56131195 12.82135204 6.5 14.625 C2.26425745 16.38989273 -1.97074374 16.65802396 -6.5 15.875 C-8.3046875 14.3515625 -8.3046875 14.3515625 -9.5 12.875 C-4.626739 11.2837311 -0.69209404 10.66307779 4.5 10.875 C4.17 8.565 3.84 6.255 3.5 3.875 C1.19 3.545 -1.12 3.215 -3.5 2.875 C-4.49 5.515 -5.48 8.155 -6.5 10.875 C-7.16 9.885 -7.82 8.895 -8.5 7.875 C-7.06593752 2.66022736 -5.65273965 -0.20188356 0 0 Z " fill="#FE6E00" transform="translate(128.5,45.125)"/>
<path d="M0 0 C-0.00785522 1.12643921 -0.00785522 1.12643921 -0.01586914 2.27563477 C-0.03675961 5.70458121 -0.04969845 9.13351421 -0.0625 12.5625 C-0.07087891 13.74392578 -0.07925781 14.92535156 -0.08789062 16.14257812 C-0.10392999 21.86863072 -0.0510705 27.36394482 1 33 C-4.66984738 26.79016716 -5.44682408 18.88336935 -5.23046875 10.81640625 C-4.93681975 7.22791598 -4.33722935 4.34307337 -3 1 C-1 0 -1 0 0 0 Z " fill="#DF433C" transform="translate(29,86)"/>
<path d="M0 0 C0 3.96 0 7.92 0 12 C-4.455 11.01 -4.455 11.01 -9 10 C-8.51309271 3.54847841 -8.51309271 3.54847841 -6.1875 1.0625 C-4 0 -4 0 0 0 Z " fill="#FDF3F2" transform="translate(111,89)"/>
<path d="M0 0 C6.11940299 2.44776119 6.11940299 2.44776119 8 6 C7.8125 8.1875 7.8125 8.1875 7 10 C4.29120665 11.35439668 1.99066732 11.06501451 -1 11 C-0.67 7.37 -0.34 3.74 0 0 Z " fill="#FBECEC" transform="translate(119,89)"/>
<path d="M0 0 C0.66 0.33 1.32 0.66 2 1 C-0.23851955 6.77436294 -5.71492784 9.30658068 -11 12 C-14.3171821 13.00613868 -17.55571547 13.63390468 -21 14 C-18.35455457 11.93250098 -15.72215372 10.24306966 -12.75 8.6875 C-8.16397678 6.19294674 -4.08478186 3.23888698 0 0 Z " fill="#DF433C" transform="translate(60,38)"/>
<path d="M0 0 C1.22589844 0.01353516 1.22589844 0.01353516 2.4765625 0.02734375 C3.41628906 0.04474609 3.41628906 0.04474609 4.375 0.0625 C4.375 0.3925 4.375 0.7225 4.375 1.0625 C3.323125 1.145 2.27125 1.2275 1.1875 1.3125 C-3.11655953 2.15920024 -4.82544618 2.68656745 -7.625 6.0625 C-8.11756365 8.70634589 -8.31195645 11.23046093 -8.38671875 13.91796875 C-8.46535156 14.62566406 -8.54398437 15.33335938 -8.625 16.0625 C-9.285 16.3925 -9.945 16.7225 -10.625 17.0625 C-11.25257528 7.1084588 -11.25257528 7.1084588 -8.75 2.9375 C-5.65800764 0.20927145 -4.03152357 -0.05759319 0 0 Z " fill="#FCE314" transform="translate(126.625,40.9375)"/>
<path d="M0 0 C1.32 0 2.64 0 4 0 C3.05177046 2.37057386 2.42687251 3.73024686 0.23828125 5.11328125 C-2.3291221 6.1303852 -4.30643929 6.30002914 -7.0625 6.3125 C-8.34833984 6.33763672 -8.34833984 6.33763672 -9.66015625 6.36328125 C-12.42104781 5.93462864 -13.27778897 5.14005895 -15 3 C-14.08476563 3.03480469 -13.16953125 3.06960937 -12.2265625 3.10546875 C-11.03804688 3.13253906 -9.84953125 3.15960938 -8.625 3.1875 C-7.44164063 3.22230469 -6.25828125 3.25710937 -5.0390625 3.29296875 C-4.03617188 3.19628906 -3.03328125 3.09960938 -2 3 C-1.34 2.01 -0.68 1.02 0 0 Z " fill="#FCAE0A" transform="translate(134,55)"/>
<path d="M0 0 C0.66 0.99 1.32 1.98 2 3 C2 2.01 2 1.02 2 0 C2.66 0 3.32 0 4 0 C4 1.98 4 3.96 4 6 C0.37 6 -3.26 6 -7 6 C-7 5.01 -7 4.02 -7 3 C-5.68 2.34 -4.36 1.68 -3 1 C-2.67 1.33 -2.34 1.66 -2 2 C-1.34 1.34 -0.68 0.68 0 0 Z " fill="#E14F3D" transform="translate(127,35)"/>
<path d="M0 0 C0.66 0.33 1.32 0.66 2 1 C-0.3450202 6.4717138 -4.72355678 8.75368812 -10 11 C-10.99 11 -11.98 11 -13 11 C-13 10.34 -13 9.68 -13 9 C-11.25588699 7.76337138 -9.45293515 6.60897865 -7.625 5.5 C-3.57056853 3.05783493 -3.57056853 3.05783493 0 0 Z " fill="#FCEEEE" transform="translate(62,40)"/>
<path d="M0 0 C-0.61277612 2.96175123 -1.25372522 4.38058783 -3 7 C-3.66 6.67 -4.32 6.34 -5 6 C-4.67 5.01 -4.34 4.02 -4 3 C-5.98 3.66 -7.96 4.32 -10 5 C-9.625 3.0625 -9.625 3.0625 -9 1 C-6.04335481 -0.4783226 -3.25770263 -0.06032783 0 0 Z " fill="#DE3F38" transform="translate(98,55)"/>
<path d="M0 0 C0.66 0 1.32 0 2 0 C1.36561422 3.10221616 0.32688681 5.48225798 -1.3125 8.1875 C-1.72113281 8.88230469 -2.12976562 9.57710937 -2.55078125 10.29296875 C-4.27596886 12.32506306 -5.40478472 12.62925496 -8 13 C-6.44759763 8.03231242 -3.48945219 3.82132943 0 0 Z " fill="#DE3D35" transform="translate(46,70)"/>
<path d="M0 0 C0.33 0 0.66 0 1 0 C1 1.65 1 3.3 1 5 C-2.82989106 6.80230168 -5.78121808 7.19622241 -10 7 C-9.34 5.68 -8.68 4.36 -8 3 C-7.34 3.33 -6.68 3.66 -6 4 C-5.67 3.34 -5.34 2.68 -5 2 C-3.68 2 -2.36 2 -1 2 C-0.67 1.34 -0.34 0.68 0 0 Z " fill="#DE3624" transform="translate(123,52)"/>
<path d="M0 0 C1.98 0 3.96 0 6 0 C5.67 0.66 5.34 1.32 5 2 C3.68 1.67 2.36 1.34 1 1 C0.34 2.32 -0.32 3.64 -1 5 C-3.64 5 -6.28 5 -9 5 C-9 4.01 -9 3.02 -9 2 C-6.03 2 -3.06 2 0 2 C0 1.34 0 0.68 0 0 Z " fill="#FB7802" transform="translate(133,54)"/>
<path d="M0 0 C0.66 0.33 1.32 0.66 2 1 C1.67 1.99 1.34 2.98 1 4 C-2.75907641 5.62323754 -5.92086213 6.23994929 -10 6 C-6.71739341 3.81159561 -3.49181927 1.84114107 0 0 Z " fill="#DD3C34" transform="translate(59,46)"/>
<path d="M0 0 C0.66 0.33 1.32 0.66 2 1 C0.50164772 5.66154042 -2.88463591 6.86610751 -7 9 C-5.64978174 4.58110387 -3.73884332 2.65654657 0 0 Z " fill="#DD3B34" transform="translate(60,38)"/>
<path d="M0 0 C1.60080151 4.00200378 0.29279692 7.04556236 -1 11 C-1.33 11 -1.66 11 -2 11 C-2.05399736 9.54207116 -2.09279177 8.08357288 -2.125 6.625 C-2.15980469 5.40683594 -2.15980469 5.40683594 -2.1953125 4.1640625 C-2 2 -2 2 0 0 Z " fill="#DF443D" transform="translate(22,83)"/>
<path d="M0 0 C0.99 0 1.98 0 3 0 C2.875 2.3125 2.875 2.3125 2 5 C-1.0625 6.8125 -1.0625 6.8125 -4 8 C-2.66666667 5.33333333 -1.33333333 2.66666667 0 0 Z " fill="#FAE6E6" transform="translate(36,65)"/>
<path d="M0 0 C0.99 0 1.98 0 3 0 C3 0.99 3 1.98 3 3 C3.99 2.67 4.98 2.34 6 2 C6 2.99 6 3.98 6 5 C4.02 5 2.04 5 0 5 C0 3.35 0 1.7 0 0 Z " fill="#FF0B00" transform="translate(124,50)"/>
<path d="M0 0 C1.875 0.3125 1.875 0.3125 4 1 C6.29013653 4.4352048 6.17842973 5.985331 6 10 C5.34 9.67 4.68 9.34 4 9 C3.66666667 7.66666667 3.33333333 6.33333333 3 5 C2.0398183 3.31008021 1.04644066 1.63790712 0 0 Z " fill="#FCE201" transform="translate(133,43)"/>
<path d="M0 0 C0.66 0.33 1.32 0.66 2 1 C1.34 1.66 0.68 2.32 0 3 C-0.71927295 5.31765729 -1.3909893 7.65095874 -2 10 C-2.66 9.01 -3.32 8.02 -4 7 C-3.1025444 3.93369336 -2.26961192 2.26961192 0 0 Z " fill="#FA6003" transform="translate(124,46)"/>
<path d="M0 0 C-2 2 -2 2 -4.6015625 2.1953125 C-5.59929687 2.17210937 -6.59703125 2.14890625 -7.625 2.125 C-9.12933594 2.09792969 -9.12933594 2.09792969 -10.6640625 2.0703125 C-11.43492188 2.04710937 -12.20578125 2.02390625 -13 2 C-13 1.67 -13 1.34 -13 1 C-11.39796533 0.63631108 -9.79325797 0.28438048 -8.1875 -0.0625 C-7.29417969 -0.25972656 -6.40085938 -0.45695312 -5.48046875 -0.66015625 C-3 -1 -3 -1 0 0 Z " fill="#E04528" transform="translate(137,60)"/>
<path d="M0 0 C1.32 0 2.64 0 4 0 C3.25 1.9375 3.25 1.9375 2 4 C-0.125 4.75 -0.125 4.75 -2 5 C-1.34 3.35 -0.68 1.7 0 0 Z " fill="#FDBD01" transform="translate(134,55)"/>
</svg>
