<?xml version="1.0" standalone="no"?>
<!DOCTYPE svg PUBLIC "-//W3C//DTD SVG 20010904//EN"
 "http://www.w3.org/TR/2001/REC-SVG-20010904/DTD/svg10.dtd">
<svg version="1.0" xmlns="http://www.w3.org/2000/svg"
 width="180.000000pt" height="180.000000pt" viewBox="0 0 180.000000 180.000000"
 preserveAspectRatio="xMidYMid meet">

<g transform="translate(0.000000,180.000000) scale(0.100000,-0.100000)"
fill="#000000" stroke="none">
<path d="M1005 1496 l7 -34 -99 -55 c-110 -62 -162 -110 -172 -158 -5 -26 -14
-35 -46 -46 -52 -18 -139 -70 -152 -93 -10 -14 1 -13 70 11 120 42 121 41 135
-35 17 -93 16 -97 -37 -150 -70 -69 -110 -162 -129 -296 -17 -120 -11 -174 20
-191 34 -19 44 7 56 150 11 119 15 141 47 206 44 92 91 135 145 135 53 0 52
-20 -1 -49 -55 -31 -79 -84 -79 -176 0 -76 24 -142 77 -212 36 -47 100 -93
130 -93 36 0 28 26 -23 84 -119 131 -149 314 -58 352 40 17 68 65 59 101 -6
25 -56 53 -94 53 -15 0 -22 11 -31 53 -13 55 -6 80 32 128 30 37 95 54 84 22
-4 -13 0 -11 14 6 11 13 20 27 20 32 0 17 -48 9 -104 -17 -63 -29 -86 -23 -86
23 0 36 46 74 147 124 97 47 143 76 143 89 0 16 -52 70 -66 70 -11 0 -13 -8
-9 -34z"/>
<path d="M691 1464 c-19 -8 -73 -42 -120 -76 -47 -34 -108 -72 -136 -84 -35
-17 -41 -22 -20 -18 48 10 113 41 163 78 77 55 129 77 174 74 45 -3 63 -26 29
-35 -24 -6 -28 -21 -7 -29 19 -7 53 11 66 35 7 14 5 25 -11 45 -16 21 -29 26
-62 26 -23 -1 -57 -7 -76 -16z"/>
<path d="M1258 1425 c-12 -27 -42 -36 -32 -10 5 11 2 13 -10 9 -9 -3 -16 -12
-16 -20 0 -10 16 -13 60 -11 66 1 104 -18 128 -65 13 -27 7 -58 -10 -58 -6 0
-8 7 -4 15 4 13 2 13 -14 5 -25 -13 -30 -13 -30 3 0 20 -33 47 -57 47 -21 0
-53 -29 -53 -48 0 -7 -9 -17 -20 -24 -11 -7 -20 -21 -20 -30 0 -10 -5 -18 -11
-18 -6 0 -9 7 -5 15 5 13 2 14 -15 4 -15 -8 -18 -14 -10 -22 7 -7 25 -7 61 1
27 6 57 9 65 5 9 -3 29 4 45 16 16 11 41 21 55 21 23 0 24 -2 15 -20 -14 -25
-45 -42 -95 -51 l-40 -6 45 -2 c45 -1 110 28 110 48 0 6 11 22 25 37 13 14 22
31 18 37 -4 7 -8 7 -11 -2 -2 -7 -12 5 -22 27 -18 39 -61 72 -95 72 -9 0 -15
10 -16 28 -1 16 -3 20 -6 10 -2 -10 -8 -18 -13 -18 -5 0 -7 7 -4 15 10 25 -6
17 -18 -10z"/>
<path d="M625 1356 c-16 -13 -52 -35 -80 -50 -48 -26 -49 -27 -15 -21 19 3 53
14 75 25 49 24 65 25 65 6 0 -37 -74 -67 -200 -82 -71 -8 -112 -28 -152 -73
-17 -20 -45 -46 -62 -58 -28 -22 -28 -23 -7 -23 28 0 70 22 95 49 24 27 46 27
46 1 0 -19 -32 -44 -119 -92 -42 -23 -71 -74 -70 -123 0 -42 2 -40 29 32 11
29 36 50 48 38 3 -2 -5 -37 -17 -77 -11 -40 -21 -91 -21 -114 0 -48 23 -132
45 -159 14 -19 14 -18 4 10 -7 17 -12 77 -13 135 -1 98 1 109 31 173 43 90
116 166 206 213 164 85 231 149 206 196 -14 25 -58 22 -94 -6z"/>
<path d="M1064 1143 c-5 -16 2 -47 20 -90 27 -66 27 -83 -2 -83 -36 -1 -101
-39 -116 -69 -19 -37 -21 -101 -3 -125 11 -15 24 -17 70 -15 31 2 57 2 57 0 0
-2 -18 -23 -40 -47 -33 -36 -40 -51 -40 -84 0 -60 32 -114 85 -146 48 -28 77
-27 124 3 22 14 23 19 17 80 -6 54 -4 69 10 84 9 11 22 19 29 19 14 0 45 32
45 48 0 24 -40 23 -83 -3 -73 -42 -82 -58 -80 -131 2 -35 -1 -64 -6 -64 -5 0
-23 14 -40 31 -45 44 -42 83 9 145 22 27 40 53 40 59 0 7 25 9 69 7 64 -4 72
-2 95 21 14 15 26 36 26 47 0 53 -65 124 -124 136 -33 6 -35 8 -46 70 -14 73
-36 107 -80 122 -28 10 -30 9 -36 -15z m37 -356 c-8 -8 -11 -8 -11 1 0 6 -16
14 -35 18 -26 5 -35 11 -35 26 0 32 20 59 53 73 l32 13 3 -60 c2 -34 -2 -66
-7 -71z m143 92 c14 -17 26 -37 26 -44 0 -18 -31 -35 -64 -35 -13 0 -26 -3
-29 -7 -2 -5 -2 -1 0 7 3 8 7 36 10 63 7 55 21 60 57 16z"/>
<path d="M441 1065 c-105 -120 -142 -335 -82 -485 96 -242 394 -392 669 -337
165 33 308 124 390 246 42 64 82 188 82 257 0 93 -44 241 -81 271 -10 8 -6
-13 13 -70 15 -45 28 -103 28 -129 0 -121 -48 -234 -141 -324 -119 -118 -207
-154 -384 -161 -105 -5 -115 -3 -213 30 -118 41 -188 88 -252 173 -65 86 -82
135 -88 250 -5 118 3 152 60 242 46 71 46 90 -1 37z"/>
</g>
</svg>
